<svg width="1016" height="1125" viewBox="0 0 1016 1125" fill="none" xmlns="http://www.w3.org/2000/svg">
<path fill-rule="evenodd" clip-rule="evenodd" d="M551.357 115.756C580.888 121.029 610.85 126.379 642.822 136.58C643.411 136.773 644.045 136.979 644.722 137.199C690.09 151.96 928.245 229.445 999.493 511.077C1071.8 796.91 893.649 1042.8 633.211 1108.68C372.774 1174.57 86.4134 1028.99 16.0179 750.729C-54.3776 472.467 130.343 288.012 165.161 257.421C175.253 248.071 184.782 239.714 194.067 231.57C222.467 206.66 248.588 183.749 281.611 140.57C302.012 112.466 317.201 76.5286 305.895 0.183278C356.568 36.8593 416.698 79.0056 455.932 93.1833C488.54 104.54 519.701 110.104 551.357 115.756ZM271.47 865.009C251.355 780.903 310.276 682.215 409.401 655.656C482.978 636.366 554.277 663.735 613.528 686.48C655.864 702.732 692.049 716.622 718.518 709.442C745.599 702.007 778.598 664.812 811.175 628.094L811.175 628.093C843.246 591.945 874.907 556.258 900.108 549.883C954.126 536.217 983.428 588.482 991.887 621.917C1000.35 655.352 1004.82 718.474 988.753 762.689C972.686 806.905 959.368 825.226 928.895 830.615C910.452 833.694 877.208 813.546 841.852 792.118C801.068 767.401 757.475 740.98 730.553 746.548C702.527 752.615 666.906 788.478 626.656 829C575.636 880.366 517.178 939.219 457.328 954.36C392.507 970.759 370.618 965.92 345.411 957.41C307.269 942.956 282.39 912.515 271.424 864.827L271.47 865.009ZM775.48 825.86C760.422 820.453 741.756 824.016 724.458 828.392L724.519 828.376C722.507 828.885 720.594 829.354 718.757 829.803C704.798 833.22 695.265 835.554 680.759 846.342C664.657 858.319 650.038 879.844 640.603 893.735L640.061 894.533C630.65 908.386 630.839 917.812 639.448 924.528C648.016 931.212 653.139 924.276 667.557 904.753L667.762 904.475C669.033 902.754 670.259 901.062 671.462 899.4C684.062 882.004 694.251 867.935 728.766 859.203C765.751 849.847 776.043 861.239 786.959 873.323C787.204 873.593 787.448 873.864 787.693 874.135L787.804 874.258C798.907 886.522 800.546 888.333 806.963 882.149C808.902 880.93 810.549 879.301 811.789 877.377C813.028 875.454 813.83 873.283 814.138 871.017C814.445 868.751 814.251 866.446 813.568 864.264C812.886 862.082 811.731 860.077 810.187 858.39L810.101 858.271C803.047 848.557 790.477 831.244 775.48 825.86ZM707.285 996.883C638.093 1014.39 602.128 1008.53 576.154 996.738L576.305 996.571C575.765 996.383 575.325 996.216 574.948 996.073C572.709 995.225 572.709 995.225 567.15 996.631C561.12 998.622 556.029 1002.75 552.845 1008.24C551.657 1010.09 550.862 1012.15 550.507 1014.32C550.153 1016.48 550.247 1018.69 550.784 1020.81C551.322 1022.94 552.291 1024.93 553.631 1026.66C554.971 1028.4 556.654 1029.84 558.576 1030.9C617.025 1062.06 695.1 1038.83 752.123 1018.67C792.061 1003.42 827.248 977.886 854.098 944.661C856.038 941.808 857.055 938.431 857.015 934.984C856.974 931.538 855.877 928.188 853.871 925.385C851.676 921.3 845.681 915.985 837.87 925.952C820.173 947.637 776.476 979.379 707.285 996.883Z" fill="url(#paint0_linear_94_789)" fill-opacity="0.548"/>
<defs>
<linearGradient id="paint0_linear_94_789" x1="2133.19" y1="-1159.77" x2="-96.5669" y2="-186.114" gradientUnits="userSpaceOnUse">
<stop/>
<stop offset="1" stop-color="white" stop-opacity="0"/>
</linearGradient>
</defs>
</svg>